<?xml version="1.0" standalone="no"?><!DOCTYPE svg PUBLIC "-//W3C//DTD SVG 1.1//EN" "http://www.w3.org/Graphics/SVG/1.1/DTD/svg11.dtd"><svg t="1581386773320" class="icon" viewBox="0 0 1024 1024" version="1.1" xmlns="http://www.w3.org/2000/svg" p-id="5068" xmlns:xlink="http://www.w3.org/1999/xlink" width="16" height="16"><defs><style type="text/css"></style></defs><path d="M512 0C230.447262 0 0 230.447262 0 512S230.447262 1024 512 1024 1024 793.552738 1024 512 793.552738 0 512 0z m12.744862 153.6c195.127138 0 195.127138 147.203938 195.127138 230.431508 0 83.243323-76.878769 236.827569-195.127138 240.009846-115.239385 0-195.142892-153.6-195.142893-240.009846 0-83.227569 0-230.447262 195.142893-230.447262zM512 995.170462c-147.219692 0-281.552738-67.158646-371.160615-172.819693 12.760615-31.996062 28.813785-67.1744 51.247261-86.4256 48.049231-38.360615 191.944862-102.352738 191.944862-102.352738l89.607877 172.8512 16.068923-41.558646-25.773293-51.231508 51.247262-51.247262 51.247261 51.247262-22.433476 54.429538 12.729107 41.542893 92.790154-169.668923s144.037415 63.992123 191.944862 102.352738c22.433477 15.911385 38.360615 44.740923 48.04923 70.356677C803.257108 924.829538 665.6 995.170462 512 995.170462z" p-id="5069"></path></svg>