<?xml version="1.0" standalone="no"?><!DOCTYPE svg PUBLIC "-//W3C//DTD SVG 1.1//EN" "http://www.w3.org/Graphics/SVG/1.1/DTD/svg11.dtd"><svg t="1581386035002" class="icon" viewBox="0 0 1024 1024" version="1.1" xmlns="http://www.w3.org/2000/svg" p-id="2890" xmlns:xlink="http://www.w3.org/1999/xlink" width="16" height="16"><defs><style type="text/css"></style></defs><path d="M952.7265 106.2646H72.76032c-38.4143 0-69.8409 31.6826-69.8409 70.3969V792.6917119999999c0 38.7144 31.4266 70.3959 69.8409 70.3959h879.966208c38.4154 0 69.8409-31.6815 69.8409-70.3959V176.66150399999998C1022.5674 137.9471 991.1419 106.2646 952.7265 106.2646zM909.9274 164.8763l-381.7984 327.7844c-13.0509 13.1799-12.9946 13.2086-26.0895 0L120.2555 164.8763H909.927424zM965.1948 772.3674 719.233 508.6597c-13.6479-13.7503-35.7366-13.7503-49.3865 0-13.6356 13.7482-13.6356 36.0356 0 49.7582l222.5592 246.6857h-750.2745600000001l222.5469-246.6857c13.6499-13.7216 13.6499-36.0376 0-49.7582-13.6346-13.7503-35.7386-13.7503-49.3742 0L61.2311 776.7511V214.919168l391.4066 327.5008c19.7417 19.8687 36.5916 34.6153 64.6318 34.6153 28.0381 0 40.5361-14.7456 60.2481-34.6153L965.1948 214.8905V772.36736z" p-id="2891"></path></svg>